:SAMPLES-PER-SECOND 30
:FULLY-SPECIFIED
:DEGREES
546
root  -2.84021 42.1495 29.7583 -29.7944 28.4959 -23.1381
RightUpLeg  -97.8213 -33.4335 -20.6958
RightLeg  -2.07828 -23.9425 -8.40057
RightFoot  6.4504 -1.49416 9.75566
RightToes  -5.82094e-011 -1.98785e-016 -5.10186e-018
Spine  29.5595 6.31613 -9.69364
Spine1  1.8921 -2.43888 44.9403
HEad  5.17722 -9.35541 4.44829
LeftShoulder1  3.99756 -24.547 -6.46027
LeftArm  40.3979 -63.1986 -107.724
LeftForeArm  48.1231 -17.363 -3.36337
LeftHand  0.40048 10.9334 9.18967
RightShoulder  5.32211 11.3672 29.8371
RightArm  -3.69528 -2.49466 -0.108351
RightForeArm  42.245 -3.79468 12.887
RightHand  -0.910849 6.76973 -8.99695
LeftUpLeg  -5.10848 17.0664 23.0951
LeftLeg  28.568 -4.147 -2.08751
LeftFoot  31.0802 2.57546 -7.14252
LeftToes  -8.4584e-011 5.90861e-011 8.40072e-012
547
root  -2.5447 42.1837 29.4744 -43.2687 25.1068 -28.5607
RightUpLeg  -74.7571 -27.2902 -24.0293
RightLeg  -0.723503 -21.4276 -8.78812
RightFoot  10.7072 -2.1042 11.1346
RightToes  -5.82094e-011 -1.98785e-016 -5.10186e-018
Spine  44.4257 2.57826 0.753714
Spine1  -0.443332 -0.928856 38.2172
HEad  6.13888 -9.00168 3.26439
LeftShoulder1  4.09465 -23.8796 -7.25134
LeftArm  39.3338 -60.3057 -104.351
LeftForeArm  45.2152 -20.3125 -2.7296
LeftHand  0.22662 9.46542 7.54001
RightShoulder  5.22322 10.8314 30.4988
RightArm  -3.62607 -4.20409 2.19335
RightForeArm  41.637 -3.53277 12.7049
RightHand  -1.17043 7.13169 -11.1578
LeftUpLeg  6.52745 15.6556 31.7058
LeftLeg  27.544 1.08119 0.941567
LeftFoot  29.112 1.5917 -4.81117
LeftToes  -8.4584e-011 5.90861e-011 8.40072e-012
548
root  -1.78847 42.1885 29.6264 -52.0624 25.0014 -34.268
RightUpLeg  -55.6165 -26.1642 -24.1469
RightLeg  -0.133272 -14.3105 -7.20842
RightFoot  14.7835 -2.93813 13.0673
RightToes  -5.82094e-011 -1.98785e-016 -5.10186e-018
Spine  48.9674 -4.35275 7.55113
Spine1  0.445344 -4.68088 33.0025
HEad  6.02329 -8.10555 2.30043
LeftShoulder1  4.10599 -23.1184 -7.78336
LeftArm  35.0498 -56.616 -98.9713
LeftForeArm  46.3385 -23.7186 -2.69534
LeftHand  0.111294 8.12699 6.20288
RightShoulder  5.10757 10.2415 31.2434
RightArm  -3.05617 -6.22198 4.43525
RightForeArm  42.0173 -2.26909 12.5933
RightHand  -1.1998 7.61971 -10.9874
LeftUpLeg  13.7248 10.7898 36.0425
LeftLeg  24.3914 3.84243 2.24722
LeftFoot  23.7445 1.16591 -4.18042
LeftToes  -8.4584e-011 5.90861e-011 8.40072e-012
549
root  -1.31931 42.048 30.6545 -49.5741 29.9315 -35.3024
RightUpLeg  -47.353 -28.172 -26.7058
RightLeg  2.00377 -7.11363 -4.82774
RightFoot  20.0092 -3.9471 14.4735
RightToes  -5.82094e-011 -1.98785e-016 -5.10186e-018
Spine  41.1715 -6.41254 4.32132
Spine1  1.96372 -9.8376 33.067
HEad  5.84346 -6.82366 1.74918
LeftShoulder1  4.25849 -22.304 -9.00543
LeftArm  28.8793 -51.2858 -92.1727
LeftForeArm  50.9916 -27.498 -3.2746
LeftHand  0.0239946 6.82333 4.54975
RightShoulder  4.9864 9.55491 32.2685
RightArm  -1.72883 -8.88126 6.45569
RightForeArm  43.0913 0.222437 12.579
RightHand  -0.719853 7.81403 -6.70864
LeftUpLeg  12.9678 8.16443 31.5749
LeftLeg  21.2492 4.33973 2.20785
LeftFoot  15.0422 0.965007 -4.50439
LeftToes  -8.4584e-011 5.90861e-011 8.40072e-012
550
root  -1.40438 41.5636 31.9829 -46.1276 32.0536 -33.0948
RightUpLeg  -41.3683 -23.4529 -26.825
RightLeg  5.0281 -3.9315 -4.01432
RightFoot  23.8333 -4.88511 15.8839
RightToes  -5.82094e-011 -1.98785e-016 -5.10186e-018
Spine  35.4971 -4.68888 -2.29205
Spine1  2.52109 -11.5392 35.5276
HEad  6.13027 -6.1116 0.797383
LeftShoulder1  4.83745 -21.2261 -12.4001
LeftArm  24.5039 -44.3478 -85.5024
LeftForeArm  54.8174 -32.647 -4.23987
LeftHand  -0.025275 5.74982 0.836612
RightShoulder  4.51579 8.55522 31.5359
RightArm  -0.58183 -12.8691 9.48453
RightForeArm  44.2497 3.12429 12.1231
RightHand  -0.238791 8.90323 -2.31862
LeftUpLeg  13.9421 8.80653 29.7755
LeftLeg  19.7234 3.33376 1.65146
LeftFoot  5.66659 0.617003 -4.32071
LeftToes  -8.4584e-011 5.90861e-011 8.40072e-012
